<svg xmlns="http://www.w3.org/2000/svg" viewBox="0 0 256 256" width="256" height="256">
  <!-- Sun -->
  <circle cx="100" cy="80" r="28" fill="#FDB913" stroke="#1F2937" stroke-width="6"/>
  
  <!-- Sun rays -->
  <line x1="100" y1="40" x2="100" y2="20" stroke="#1F2937" stroke-width="6" stroke-linecap="round"/>
  <line x1="100" y1="140" x2="100" y2="160" stroke="#1F2937" stroke-width="6" stroke-linecap="round"/>
  <line x1="40" y1="80" x2="20" y2="80" stroke="#1F2937" stroke-width="6" stroke-linecap="round"/>
  <line x1="160" y1="80" x2="180" y2="80" stroke="#1F2937" stroke-width="6" stroke-linecap="round"/>
  <line x1="55" y1="45" x2="40" y2="30" stroke="#1F2937" stroke-width="6" stroke-linecap="round"/>
  <line x1="145" y1="135" x2="160" y2="150" stroke="#1F2937" stroke-width="6" stroke-linecap="round"/>
  <line x1="145" y1="45" x2="160" y2="30" stroke="#1F2937" stroke-width="6" stroke-linecap="round"/>
  <line x1="55" y1="135" x2="40" y2="150" stroke="#1F2937" stroke-width="6" stroke-linecap="round"/>
  
  <!-- Cloud -->
  <path d="M 70 120 Q 70 100 90 100 Q 105 85 125 85 Q 150 85 160 105 Q 180 105 180 125 Q 180 150 155 150 L 75 150 Q 55 150 55 135 Q 55 120 70 120 Z" fill="#ADD8E6" stroke="#1F2937" stroke-width="6"/>
</svg>